<svg width="40" height="41" viewBox="0 0 40 41" fill="none" xmlns="http://www.w3.org/2000/svg">
<path d="M32.5805 11.2863H27.3207V9.12937C27.3207 5.04301 24.0077 1.72998 19.9213 1.72998C15.8347 1.72998 12.5216 5.04301 12.5216 9.12937V11.2863H6.82722C6.35714 11.2876 5.97594 11.6683 5.97461 12.1389V34.9676C5.97568 37.3215 7.88352 39.2293 10.2372 39.2301H29.1789C31.5328 39.2293 33.4406 37.3215 33.4412 34.9676V12.1389C33.4358 11.6667 33.0522 11.2871 32.5805 11.2863ZM14.2181 9.12083C14.2181 5.97597 16.7679 3.42614 19.9125 3.42614C23.0579 3.42614 25.6072 5.97597 25.6072 9.12083V11.2777H14.2181V9.12083ZM31.7279 34.9676C31.7236 36.3786 30.5811 37.5212 29.1706 37.5252H10.2289C8.81782 37.5212 7.6753 36.3786 7.6713 34.9676V12.9912H12.5131V16.4607C12.5131 16.9316 12.8951 17.3133 13.3655 17.3133C13.8363 17.3133 14.2181 16.9316 14.2181 16.4607V12.9912H25.6157V16.4607C25.6157 16.9316 25.9975 17.3133 26.4683 17.3133C26.9387 17.3133 27.3207 16.9316 27.3207 16.4607V12.9912H31.7279V34.9676Z" fill="white"/>
</svg>
